# xmcd CD database file
#
# Track frame offsets:
#	150
#	16763
#	23120
#	44395
#	63680
#	77525
#	91248
#	122488
#	148710
#	169930
#	190228
#	206585
#	227558
#	240648
#	269878
#	289173
#	313788
#
# Disc length: 4586 seconds
#
# Revision: 3
# Processed by: cddbd v1.5.2PL0 Copyright (c) Steve Scherf et al.
# Submitted via: CDex 1.70beta2
#
DISCID=f011e811
DTITLE=cali≠gari - グッド、バイ。
DYEAR=2003
DGENRE=Rock
TTITLE0=グッド・バイ。
TTITLE1=187-
TTITLE2=君が咲く山
TTITLE3=フラフラスキップ
TTITLE4=舌先3分サイズ
TTITLE5=3.2.1.0
TTITLE6=空想カニバル
TTITLE7=エロトピア
TTITLE8=マグロ
TTITLE9=ハイカラ・殺伐・ハイソ・絶賛
TTITLE10=まほらばぶる～ず
TTITLE11=サイレン
TTITLE12=ゼリー
TTITLE13=冷たい雨
TTITLE14=青春狂騒曲
TTITLE15=ブルーフィルム
TTITLE16=いつか、どこかで。
EXTD=YEAR: 2003
EXTT0=
EXTT1=
EXTT2=
EXTT3=
EXTT4=
EXTT5=
EXTT6=
EXTT7=
EXTT8=
EXTT9=
EXTT10=
EXTT11=
EXTT12=
EXTT13=
EXTT14=
EXTT15=
EXTT16=
PLAYORDER=
